<?xml version="1.0" encoding="UTF-8"?><svg id="logo" xmlns="http://www.w3.org/2000/svg" viewBox="0 0 629.56 255.32"><defs><style>.uuid-48c3568b-1c30-4b70-8fcd-ab5392049cea{fill:#fff1e6;stroke-width:0px;}</style></defs><path class="uuid-48c3568b-1c30-4b70-8fcd-ab5392049cea" d="m9.93,6.58h48.75c21.48,0,37.62,15.52,37.62,36.21,0,15.99-9.88,28.53-24.61,33.08l5.17,7.52c4.08,5.8,9.56,8.46,16.62,8.46h4.7v22.89h-7.37c-17.24,0-29.47-6.58-36.84-20.06l-10.03-16.93h-9.72v36.99H9.93V6.58Zm24.3,22.89v27.12h23.98c7.52,0,13.17-5.8,13.17-13.48s-5.64-13.64-13.17-13.64h-23.98Z"/><path class="uuid-48c3568b-1c30-4b70-8fcd-ab5392049cea" d="m100.53,74.77c0-23.83,18.5-41.85,43.11-41.85s43.11,17.87,43.11,42.17c0,2.04-.16,5.17-.63,7.05h-61.13c2.51,9.09,9.72,14.89,19.28,14.89,7.52,0,13.79-3.29,16.77-7.52h24.45c-5.96,16.15-21.95,27.12-41.7,27.12-24.77,0-43.27-18.03-43.27-41.85Zm24.61-7.84h37.15c-2.51-8.78-9.56-14.42-18.65-14.42s-15.99,5.64-18.5,14.42Z"/><path class="uuid-48c3568b-1c30-4b70-8fcd-ab5392049cea" d="m191.61,74.77c0-23.83,16.62-41.85,38.56-41.85,9.72,0,18.03,3.61,24.14,9.87v-7.99h22.89v51.42c0,4.08,2.35,6.43,6.43,6.43h1.57v22.1h-6.43c-10.97,0-18.18-3.61-21.79-10.82-6.43,7.84-15.68,12.7-26.81,12.7-21.95,0-38.56-18.03-38.56-41.85Zm62.7,0c0-11.29-8.31-19.75-19.59-19.75s-19.44,8.46-19.44,19.75,8.31,19.75,19.44,19.75,19.59-8.46,19.59-19.75Z"/><path class="uuid-48c3568b-1c30-4b70-8fcd-ab5392049cea" d="m289.42,96.4c4.86-1.88,9.56-4.39,13.8-7.21-8-12.07-12.38-27.75-12.38-45.46,0-27.9,13.01-43.73,32.6-43.73s31.19,14.26,31.19,38.56c0,18.18-6.9,35.9-18.65,50.16,4.55,2.51,9.56,3.92,15.05,3.92h5.02v22.1h-6.27c-12.07,0-22.73-3.61-31.67-9.87-6.11,4.07-12.7,7.37-19.91,9.87l-8.78-18.34Zm31.19-24.77c6.58-9.72,10.35-21.16,10.35-33.08,0-10.66-2.98-16.46-8-16.46s-8.62,6.27-8.62,19.91c0,11.13,2.19,21.32,6.27,29.63Z"/><path class="uuid-48c3568b-1c30-4b70-8fcd-ab5392049cea" d="m390.99,74.77c0-23.83,18.5-41.85,43.11-41.85s43.11,18.03,43.11,41.85-18.5,41.85-43.11,41.85-43.11-18.03-43.11-41.85Zm62.7,0c0-11.29-8.31-19.75-19.6-19.75s-19.59,8.46-19.59,19.75,8.31,19.75,19.59,19.75,19.6-8.46,19.6-19.75Z"/><path class="uuid-48c3568b-1c30-4b70-8fcd-ab5392049cea" d="m490.85,53.14c-4.39-2.98-7.05-8.31-7.05-14.11,0-8.46,5.96-14.26,14.89-14.26,8.47,0,14.27,5.33,15.21,12.38l49.38,5.64v5.49c-8.62,11.91-13.17,22.26-13.17,31.04s4.23,13.32,12.23,13.32h3.45v22.1h-5.49c-22.26,0-33.7-12.23-33.7-32.6,0-6.9,1.41-13.79,4.7-20.85l-19.6-2.67-10.5,56.12h-22.57l12.23-61.6Z"/><path class="uuid-48c3568b-1c30-4b70-8fcd-ab5392049cea" d="m98.03,253.43h-24.45c-1.59,0-3.06-.89-3.8-2.3l-29.37-56.03-7.57,54.62c-.29,2.12-2.11,3.7-4.25,3.7H4.29c-1.24,0-2.42-.54-3.24-1.48-.81-.94-1.18-2.18-1.01-3.41l15.21-108.16c.3-2.12,2.11-3.69,4.25-3.69h24.45c1.6,0,3.06.89,3.8,2.31l29.24,56.02,7.7-54.64c.3-2.12,2.11-3.69,4.25-3.69h24.3c1.24,0,2.42.54,3.24,1.48.81.94,1.18,2.18,1.01,3.41l-15.21,108.16c-.3,2.12-2.11,3.69-4.25,3.69Zm-21.86-8.58h18.13l14-99.58h-15.64l-9.04,64.18c-.26,1.84-1.68,3.31-3.52,3.63-1.82.33-3.67-.59-4.53-2.24l-34.22-65.57h-18.13l-14,99.58h15.63l8.89-64.17c.26-1.85,1.68-3.32,3.51-3.64,1.84-.33,3.67.58,4.54,2.23l34.38,65.58Z"/><path class="uuid-48c3568b-1c30-4b70-8fcd-ab5392049cea" d="m158.06,255.32c-14.34,0-26.78-5.24-35.04-14.75-8.01-9.22-11.39-21.7-9.49-35.13h0c3.49-24.57,24.59-42.41,50.18-42.41,14.34,0,26.78,5.24,35.04,14.75,8.01,9.22,11.39,21.7,9.49,35.13-3.49,24.57-24.59,42.41-50.18,42.41Zm-36.04-48.68c-1.54,10.93,1.11,20.98,7.47,28.3,6.61,7.61,16.76,11.8,28.57,11.8,21.61,0,38.76-14.41,41.68-35.03,1.54-10.93-1.11-20.98-7.47-28.3-6.61-7.61-16.76-11.8-28.57-11.8-21.61,0-38.75,14.4-41.68,35.03h0Zm37.76,26.58c-7.21,0-13.51-2.69-17.75-7.57-4.24-4.89-6.02-11.51-5-18.64,1.89-12.48,12.61-21.87,24.94-21.87,7.17,0,13.46,2.7,17.72,7.61,4.25,4.91,6.04,11.51,5.03,18.61,0,.01,0,.03,0,.04-1.89,12.45-12.6,21.83-24.93,21.83Zm2.19-39.5c-8.12,0-15.19,6.25-16.45,14.54-.66,4.6.4,8.79,2.99,11.77,2.58,2.98,6.58,4.61,11.26,4.61,8.12,0,15.18-6.24,16.45-14.52.65-4.59-.42-8.76-3.02-11.76-2.6-3-6.59-4.65-11.24-4.65Zm18.5,17.03h.01-.01Z"/><path class="uuid-48c3568b-1c30-4b70-8fcd-ab5392049cea" d="m334.88,253.43h-7.37c-18.84,0-31-7.41-37.17-22.65l-6.64-14.34h-3.87l-4.66,33.3c-.3,2.12-2.11,3.7-4.25,3.7h-24.3c-1.24,0-2.42-.54-3.24-1.48-.81-.94-1.18-2.18-1.01-3.41l15.21-108.16c.3-2.12,2.11-3.69,4.25-3.69h45.46c13.09,0,24.41,4.76,31.88,13.4,7.05,8.16,9.99,19.12,8.26,30.86-2.13,14.74-12.49,27.02-26.97,32.48l1.26,2.31c2.43,4.29,6.02,6.23,11.6,6.23h4.7c1.24,0,2.42.54,3.23,1.47.81.93,1.19,2.17,1.02,3.4l-3.13,22.89c-.29,2.12-2.11,3.71-4.25,3.71Zm-58.78-45.57h10.35c1.67,0,3.19.97,3.89,2.49l7.84,16.93c.03.07.06.13.09.2,4.77,11.85,14.06,17.38,29.25,17.38h3.63l1.96-14.31c-8.56-.06-14.91-3.64-18.88-10.64l-3.8-6.96c-.64-1.17-.7-2.56-.16-3.78.54-1.22,1.61-2.12,2.9-2.44,14-3.46,23.88-13.81,25.79-27.02,1.36-9.24-.87-17.77-6.27-24.02-5.81-6.72-14.82-10.43-25.39-10.43h-41.73l-14,99.58h15.63l4.66-33.3c.3-2.12,2.11-3.7,4.25-3.7Zm26.96-12.58h-23.98c-1.24,0-2.42-.54-3.24-1.47-.81-.93-1.18-2.18-1.01-3.41l3.76-27.12c.29-2.12,2.11-3.7,4.25-3.7h23.36c5.05,0,9.51,1.92,12.56,5.41,3.14,3.59,4.47,8.46,3.76,13.72-1.45,9.78-9.45,16.57-19.46,16.57Zm-19.06-8.58h19.06c5.65,0,10.16-3.78,10.96-9.2.37-2.71-.24-5.17-1.73-6.87-1.42-1.62-3.52-2.48-6.1-2.48h-19.62l-2.57,18.54Z"/><path class="uuid-48c3568b-1c30-4b70-8fcd-ab5392049cea" d="m484.73,255.32c-12.34,0-23.23-4.71-30.66-13.27-8.13-9.35-11.49-22.35-9.48-36.61,0,0,0-.02,0-.03,3.68-24.95,22.45-42.38,45.63-42.38,8.66,0,16.42,2.27,22.58,6.52l.13-.95c.3-2.12,2.11-3.69,4.25-3.69h22.89c1.24,0,2.42.54,3.24,1.47.82.94,1.18,2.18,1.01,3.41l-7.21,51.42c-.08.78,0,1.21.04,1.4.16.05.53.14,1.2.14h1.57c1.24,0,2.42.54,3.24,1.48.81.94,1.18,2.18,1.01,3.41l-3.13,22.1c-.3,2.12-2.11,3.69-4.25,3.69h-6.43c-10.99,0-17.21-3.44-20.74-7.51-7.09,6.09-15.75,9.39-24.87,9.39Zm-31.65-48.66c-1.65,11.75,1,22.32,7.47,29.77,5.78,6.65,14.37,10.32,24.19,10.32,8.58,0,16.37-3.63,22.51-10.49.99-1.11,2.49-1.62,3.95-1.36,1.46.26,2.69,1.26,3.23,2.64.71,1.81,2.89,7.32,15.92,7.32h2.7l1.97-13.92c-1.74-.46-3.17-1.31-4.28-2.55-1.8-2-2.52-4.77-2.15-8.23l6.54-46.67h-14.22l-.74,5.24c-.24,1.68-1.44,3.06-3.07,3.53-1.63.47-3.38-.07-4.47-1.37-5.08-6.07-12.84-9.28-22.42-9.28-18.82,0-34.09,14.41-37.14,35.04Zm37.77,26.56c-7.12,0-13.36-2.68-17.58-7.53-4.25-4.9-6.03-11.54-5.01-18.68,1.7-12.45,12.42-21.87,24.94-21.87,7.16,0,13.39,2.64,17.54,7.43,4.17,4.8,5.9,11.36,4.89,18.47,0,0,0,.02,0,.03-1.88,12.63-12.54,22.15-24.78,22.15Zm2.35-39.5c-8.25,0-15.32,6.22-16.44,14.47-.67,4.67.4,8.88,3,11.87,2.56,2.95,6.5,4.58,11.09,4.58,8.02,0,15.02-6.37,16.29-14.83.65-4.6-.37-8.73-2.88-11.62-2.5-2.88-6.43-4.47-11.06-4.47Zm18.18,16.72h.01-.01Z"/><path class="uuid-48c3568b-1c30-4b70-8fcd-ab5392049cea" d="m557.46,253.44c-1.79,0-3.45-1.13-4.06-2.9l-6.27-18.34c-.75-2.19.37-4.57,2.53-5.4,3.65-1.39,7.32-3.09,11.14-5.14-5.69-13.07-7.45-29.18-5.08-46.91,4.03-28.38,18.89-44.64,40.78-44.64,10.44,0,19.04,3.56,24.86,10.29,7.06,8.16,9.63,20.45,7.44,35.53-2.31,16.19-10.06,32.3-22.01,45.94,2.13.59,4.4.88,6.79.88h5.02c1.25,0,2.43.54,3.25,1.49.81.95,1.18,2.2.99,3.43l-3.29,22.1c-.31,2.1-2.12,3.66-4.24,3.66h-6.27c-11.51,0-21.61-3.03-30.08-9.02-6.64,3.78-13.43,6.75-20.24,8.83-.42.13-.84.19-1.26.19Zm21.79-18.45c.96,0,1.91.32,2.69.95,7.37,5.92,16.49,8.93,27.09,8.93h2.57l2.01-13.52h-.04c-5.98,0-11.45-1.41-16.25-4.18-1.15-.66-1.93-1.82-2.11-3.14-.18-1.32.27-2.64,1.2-3.59,13.08-13.23,21.56-29.47,23.88-45.71,1.83-12.55-.05-22.47-5.44-28.69-4.2-4.86-10.39-7.32-18.38-7.32-17.4,0-28.87,13.22-32.28,37.23-2.36,17.68-.29,33.44,5.99,45.55,1.05,2.03.33,4.54-1.65,5.68-4.13,2.39-8.08,4.41-11.99,6.1l3.58,10.48c5.68-2.05,11.34-4.78,16.89-8.13.69-.41,1.45-.62,2.22-.62Zm6.74-24.65c-.24,0-.49-.02-.73-.06-1.52-.27-2.78-1.33-3.3-2.78-3.22-8.99-4.05-20.1-2.41-32.13,2.88-20.14,11.07-23.14,15.69-23.14,2.88,0,5.37,1.13,7.22,3.26,3.11,3.59,4.06,9.73,2.82,18.26-1.79,12.39-7.32,24.5-15.98,35.03-.82,1-2.04,1.56-3.31,1.56Zm9.25-49.53c-2.38,0-5.65,4.93-7.2,15.76-.96,7.01-.99,13.61-.11,19.49,4.66-7.42,7.69-15.43,8.87-23.54.96-6.62.16-10.28-.82-11.41-.16-.19-.29-.3-.74-.3Z"/><path class="uuid-48c3568b-1c30-4b70-8fcd-ab5392049cea" d="m432.35,177.85c-8.19-9.55-20.93-14.81-35.87-14.81-26.05,0-46.68,17.44-50.18,42.41-1.89,13.41,1.47,25.87,9.48,35.09,8.28,9.54,20.79,14.79,35.21,14.79,6.55,0,13.12-1.09,19.26-3.4,13.09-4.92,23.68-15.39,27.92-28.79,4.79-15.13,5.01-32.65-5.82-45.28Zm.02,31.19c-.08.58-.27,1.86-.55,3.21h-57.74c-1.27,0-2.48.57-3.3,1.55-.82.98-1.15,2.27-.92,3.53,2.15,11.52,10.7,18.39,22.87,18.39,6.61,0,12.6-2.23,16.97-6.22.72-.72,1.62-1.66,2.64-2.82,2.07-2.35,3.82-5.89,3.82-5.89h14.27s-1.18,3.48-4.47,8.32c-7.24,11.15-19.81,17.62-34.97,17.62-11.9,0-22.11-4.2-28.74-11.83-6.35-7.31-9-17.35-7.46-28.27h0c2.89-20.63,20.03-35.03,41.68-35.03,12.39,0,22.82,4.2,29.36,11.82,5.81,6.77,8.07,15.61,6.53,25.61Zm-26.33,11.79c-.16.15-.31.32-.44.5-2.73,3.64-7.54,5.81-12.87,5.81-5.86,0-10.19-2.2-12.61-6.31h25.92Z"/><path class="uuid-48c3568b-1c30-4b70-8fcd-ab5392049cea" d="m395.7,182.62c-10.59,0-19.75,6.57-23.9,17.14-.52,1.32-.35,2.81.45,3.98.8,1.17,2.13,1.87,3.55,1.87h37.62c1.24,0,2.43-.54,3.24-1.48.81-.94,1.18-2.19,1.01-3.42-1.57-11-10.19-18.1-21.96-18.1Zm-12.42,14.42c3.2-3.7,7.6-5.84,12.42-5.84,5.42,0,9.56,2.11,11.79,5.84h-24.21Z"/></svg>